<mxfile host="app.diagrams.net" modified="2021-06-16T03:25:04.694Z" agent="5.0 (Macintosh; Intel Mac OS X 10_15_7) AppleWebKit/537.36 (KHTML, like Gecko) Chrome/91.0.4472.77 Safari/537.36" etag="-66FrRHX0TCEn0botThd" version="14.7.7" type="github">
  <diagram id="6a731a19-8d31-9384-78a2-239565b7b9f0" name="Page-1">
    <mxGraphModel dx="1426" dy="794" grid="1" gridSize="10" guides="1" tooltips="1" connect="1" arrows="1" fold="1" page="1" pageScale="1" pageWidth="1169" pageHeight="827" background="none" math="0" shadow="0">
      <root>
        <mxCell id="0" />
        <mxCell id="1" parent="0" />
        <mxCell id="1745" value="" style="edgeStyle=none;rounded=0;jumpStyle=none;html=1;shadow=0;labelBackgroundColor=none;startArrow=none;startFill=0;endArrow=classic;endFill=1;jettySize=auto;orthogonalLoop=1;strokeColor=#2F5B7C;strokeWidth=3;fontFamily=Helvetica;fontSize=16;fontColor=#23445D;spacing=5;" parent="1" source="1764" edge="1">
          <mxGeometry relative="1" as="geometry">
            <mxPoint x="798" y="231" as="targetPoint" />
          </mxGeometry>
        </mxCell>
        <mxCell id="1747" value="" style="edgeStyle=none;rounded=0;jumpStyle=none;html=1;shadow=0;labelBackgroundColor=none;startArrow=none;startFill=0;endArrow=classic;endFill=1;jettySize=auto;orthogonalLoop=1;strokeColor=#2F5B7C;strokeWidth=3;fontFamily=Helvetica;fontSize=16;fontColor=#23445D;spacing=5;" parent="1" source="1749" target="1760" edge="1">
          <mxGeometry relative="1" as="geometry" />
        </mxCell>
        <mxCell id="1749" value="RootNode" style="rounded=1;whiteSpace=wrap;html=1;shadow=0;labelBackgroundColor=none;strokeColor=none;strokeWidth=3;fillColor=#2F5B7C;fontFamily=Helvetica;fontSize=16;fontColor=#FFFFFF;align=center;fontStyle=1;spacing=5;arcSize=7;perimeterSpacing=2;" parent="1" vertex="1">
          <mxGeometry x="800" y="195.5" width="150" height="70" as="geometry" />
        </mxCell>
        <mxCell id="1757" value="" style="edgeStyle=none;rounded=0;jumpStyle=none;html=1;shadow=0;labelBackgroundColor=none;startArrow=none;startFill=0;endArrow=classic;endFill=1;jettySize=auto;orthogonalLoop=1;strokeColor=#1699D3;strokeWidth=3;fontFamily=Helvetica;fontSize=14;fontColor=#FFFFFF;spacing=5;exitX=0.5;exitY=1;exitDx=0;exitDy=0;entryX=0.5;entryY=0;entryDx=0;entryDy=0;" parent="1" edge="1">
          <mxGeometry relative="1" as="geometry">
            <mxPoint x="875" y="375.5" as="sourcePoint" />
            <mxPoint x="875" y="427" as="targetPoint" />
          </mxGeometry>
        </mxCell>
        <mxCell id="1760" value="div" style="rounded=1;whiteSpace=wrap;html=1;shadow=0;labelBackgroundColor=none;strokeColor=none;strokeWidth=3;fillColor=#1699d3;fontFamily=Helvetica;fontSize=14;fontColor=#FFFFFF;align=center;spacing=5;fontStyle=1;arcSize=7;perimeterSpacing=2;" parent="1" vertex="1">
          <mxGeometry x="800" y="314.5" width="150" height="60" as="geometry" />
        </mxCell>
        <mxCell id="1761" value="123" style="rounded=1;whiteSpace=wrap;html=1;shadow=0;labelBackgroundColor=none;strokeColor=none;strokeWidth=3;fillColor=#64bbe2;fontFamily=Helvetica;fontSize=14;fontColor=#FFFFFF;align=center;spacing=5;arcSize=7;perimeterSpacing=2;" parent="1" vertex="1">
          <mxGeometry x="800" y="430" width="150" height="60" as="geometry" />
        </mxCell>
        <mxCell id="1764" value="RootNode" style="rounded=1;whiteSpace=wrap;html=1;shadow=0;labelBackgroundColor=none;strokeColor=none;strokeWidth=3;fillColor=#F08705;fontFamily=Helvetica;fontSize=14;fontColor=#FFFFFF;align=center;spacing=5;fontStyle=1;arcSize=7;perimeterSpacing=2;" parent="1" vertex="1">
          <mxGeometry x="495" y="200.5" width="150" height="60" as="geometry" />
        </mxCell>
        <mxCell id="1767" value="&lt;b&gt;FiberRootNode&lt;/b&gt;" style="rounded=1;whiteSpace=wrap;html=1;shadow=0;labelBackgroundColor=none;strokeColor=none;strokeWidth=3;fillColor=#f5af58;fontFamily=Helvetica;fontSize=14;fontColor=#FFFFFF;align=center;spacing=5;arcSize=7;perimeterSpacing=2;" parent="1" vertex="1">
          <mxGeometry x="495" y="50.5" width="150" height="60" as="geometry" />
        </mxCell>
        <mxCell id="1768" value="" style="edgeStyle=none;rounded=0;jumpStyle=none;html=1;shadow=0;labelBackgroundColor=none;startArrow=none;startFill=0;endArrow=classic;endFill=1;jettySize=auto;orthogonalLoop=1;strokeColor=#F08705;strokeWidth=3;fontFamily=Helvetica;fontSize=14;fontColor=#FFFFFF;spacing=5;" parent="1" source="1767" target="1764" edge="1">
          <mxGeometry relative="1" as="geometry" />
        </mxCell>
        <mxCell id="fxhrwSIjBqFNIZeZUTK5-1781" value="alternate" style="text;html=1;align=center;verticalAlign=middle;resizable=0;points=[];autosize=1;strokeColor=none;fontColor=#2E55A3;" vertex="1" parent="1">
          <mxGeometry x="690" y="205.5" width="60" height="20" as="geometry" />
        </mxCell>
        <mxCell id="fxhrwSIjBqFNIZeZUTK5-1782" value="" style="edgeStyle=none;rounded=0;jumpStyle=none;html=1;shadow=0;labelBackgroundColor=none;startArrow=none;startFill=0;endArrow=classic;endFill=1;jettySize=auto;orthogonalLoop=1;strokeColor=#2F5B7C;strokeWidth=3;fontFamily=Helvetica;fontSize=16;fontColor=#23445D;spacing=5;exitX=0.019;exitY=0.642;exitDx=0;exitDy=0;exitPerimeter=0;" edge="1" parent="1" source="1749">
          <mxGeometry relative="1" as="geometry">
            <mxPoint x="795.5" y="240.5" as="sourcePoint" />
            <mxPoint x="644.5" y="240.5" as="targetPoint" />
          </mxGeometry>
        </mxCell>
        <mxCell id="fxhrwSIjBqFNIZeZUTK5-1783" value="alternate" style="text;html=1;align=center;verticalAlign=middle;resizable=0;points=[];autosize=1;strokeColor=none;fontColor=#2E55A3;" vertex="1" parent="1">
          <mxGeometry x="690" y="245.5" width="60" height="20" as="geometry" />
        </mxCell>
        <mxCell id="fxhrwSIjBqFNIZeZUTK5-1784" value="child" style="text;html=1;align=center;verticalAlign=middle;resizable=0;points=[];autosize=1;strokeColor=none;fontColor=#2E55A3;" vertex="1" parent="1">
          <mxGeometry x="890" y="280" width="40" height="20" as="geometry" />
        </mxCell>
        <mxCell id="fxhrwSIjBqFNIZeZUTK5-1785" value="child" style="text;html=1;align=center;verticalAlign=middle;resizable=0;points=[];autosize=1;strokeColor=none;fontColor=#2E55A3;" vertex="1" parent="1">
          <mxGeometry x="890" y="394" width="40" height="20" as="geometry" />
        </mxCell>
        <mxCell id="fxhrwSIjBqFNIZeZUTK5-1786" value="" style="edgeStyle=none;rounded=0;jumpStyle=none;html=1;shadow=0;labelBackgroundColor=none;startArrow=none;startFill=0;endArrow=classic;endFill=1;jettySize=auto;orthogonalLoop=1;strokeColor=#1699D3;strokeWidth=3;fontFamily=Helvetica;fontSize=14;fontColor=#FFFFFF;spacing=5;exitX=0.5;exitY=1;exitDx=0;exitDy=0;entryX=0.5;entryY=0;entryDx=0;entryDy=0;" edge="1" parent="1">
          <mxGeometry relative="1" as="geometry">
            <mxPoint x="860" y="426" as="sourcePoint" />
            <mxPoint x="860" y="374.5" as="targetPoint" />
          </mxGeometry>
        </mxCell>
        <mxCell id="fxhrwSIjBqFNIZeZUTK5-1787" value="" style="edgeStyle=none;rounded=0;jumpStyle=none;html=1;shadow=0;labelBackgroundColor=none;startArrow=none;startFill=0;endArrow=classic;endFill=1;jettySize=auto;orthogonalLoop=1;strokeColor=#2F5B7C;strokeWidth=3;fontFamily=Helvetica;fontSize=16;fontColor=#23445D;spacing=5;" edge="1" parent="1">
          <mxGeometry relative="1" as="geometry">
            <mxPoint x="860" y="310.5" as="sourcePoint" />
            <mxPoint x="860" y="265.5" as="targetPoint" />
          </mxGeometry>
        </mxCell>
        <mxCell id="fxhrwSIjBqFNIZeZUTK5-1788" value="return" style="text;html=1;align=center;verticalAlign=middle;resizable=0;points=[];autosize=1;strokeColor=none;fontColor=#2E55A3;" vertex="1" parent="1">
          <mxGeometry x="815" y="393.5" width="50" height="20" as="geometry" />
        </mxCell>
        <mxCell id="fxhrwSIjBqFNIZeZUTK5-1789" value="return" style="text;html=1;align=center;verticalAlign=middle;resizable=0;points=[];autosize=1;strokeColor=none;fontColor=#2E55A3;" vertex="1" parent="1">
          <mxGeometry x="815" y="280" width="50" height="20" as="geometry" />
        </mxCell>
        <mxCell id="fxhrwSIjBqFNIZeZUTK5-1790" value="" style="rounded=1;whiteSpace=wrap;html=1;strokeColor=#6c8ebf;fillColor=none;" vertex="1" parent="1">
          <mxGeometry x="770" y="160" width="210" height="380" as="geometry" />
        </mxCell>
        <mxCell id="fxhrwSIjBqFNIZeZUTK5-1791" value="" style="rounded=1;whiteSpace=wrap;html=1;strokeColor=#d79b00;fillColor=none;" vertex="1" parent="1">
          <mxGeometry x="470" y="170" width="210" height="380" as="geometry" />
        </mxCell>
      </root>
    </mxGraphModel>
  </diagram>
</mxfile>
